<svg xmlns="http://www.w3.org/2000/svg" viewBox="0 0 200 200" fill="none">
  <path d="M80 28 C82 12, 118 10, 122 28 L126 98 C124 118, 78 120, 76 98Z" fill="#d97757"/>
  <path d="M90 48 C92 46, 110 45, 112 48 C114 52, 110 56, 108 56 C92 58, 90 54, 90 48Z" fill="#c4654a"/>
  <path d="M89 72 C91 70, 111 69, 113 72 C115 76, 111 80, 109 80 C91 82, 89 78, 89 72Z" fill="#c4654a"/>
  <path d="M60 95 C58 82, 66 76, 68 80 C70 92, 72 120, 100 132 C128 120, 134 92, 136 80 C138 76, 146 82, 144 96 C140 126, 120 144, 100 146 C80 148, 62 128, 60 95Z" fill="#d97757"/>
  <path d="M94 146 L106 146 L106 174 L96 174Z" fill="#d97757"/>
  <path d="M74 174 C76 170, 126 169, 128 174 C130 180, 74 180, 74 174Z" fill="#d97757"/>
</svg>
